<svg fill="none" height="32" viewBox="0 0 32 32" width="32" xmlns="http://www.w3.org/2000/svg" xmlns:xlink="http://www.w3.org/1999/xlink"><clipPath id="a"><path d="m0 0h32v32h-32z"/></clipPath><g clip-path="url(#a)" clip-rule="evenodd" fill="#262626" fill-rule="evenodd"><path d="m3.33333 1.33334c-.53043 0-1.03914.21071-1.41421.58578-.37507.37508-.58579.88378-.58579 1.41422v25.33336c0 .5304.21072 1.0391.58579 1.4142s.88378.5858 1.41421.5858h6.66667c.3682 0 .6667.2984.6667.6666s-.2985.6667-.6667.6667h-6.66667c-.88405 0-1.7319-.3512-2.357019-.9763-.625121-.6251-.976311-1.473-.976311-2.357v-25.33336c0-.88406.351189-1.7319.976311-2.357025.625119-.625122 1.472969-.97631119 2.357019-.97631119h13.33337c.884 0 1.7319.35118919 2.357.97631119.6251.625125.9763 1.472965.9763 2.357025v11.99996c0 .3682-.2985.6667-.6667.6667s-.6666-.2985-.6666-.6667v-11.99996c0-.53044-.2107-1.03914-.5858-1.41422-.3751-.37507-.8838-.58578-1.4142-.58578z"/><path d="m.00531006 5.99999c0-.36818.29847694-.66666.66666694-.66666h18.666623c.3682 0 .6667.29848.6667.66666 0 .36819-.2985.66667-.6667.66667h-18.666623c-.36819 0-.66666694-.29848-.66666694-.66667z"/><path d="m.00531006 26c0-.3682.29847694-.6667.66666694-.6667h9.333323c.3682 0 .6667.2985.6667.6667s-.2985.6667-.6667.6667h-9.333323c-.36819 0-.66666694-.2985-.66666694-.6667z"/><path d="m6.672 3.33334c0-.36819.29847-.66667.66666-.66667h5.33334c.3682 0 .6667.29848.6667.66667s-.2985.66667-.6667.66667h-5.33334c-.36819 0-.66666-.29848-.66666-.66667z"/><path d="m12.0053 22c0-.3682.2985-.6667.6667-.6667h18.6666c.3682 0 .6667.2985.6667.6667s-.2985.6667-.6667.6667h-18.6666c-.3682 0-.6667-.2985-.6667-.6667z"/><path d="m14.672 24.6667c0-.3682.2985-.6667.6667-.6667h5.3333c.3682 0 .6667.2985.6667.6667s-.2985.6666-.6667.6666h-5.3333c-.3682 0-.6667-.2984-.6667-.6666z"/><path d="m25.3386 24.6667c0-.3682.2985-.6667.6667-.6667h2.6667c.3681 0 .6666.2985.6666.6667s-.2985.6666-.6666.6666h-2.6667c-.3682 0-.6667-.2984-.6667-.6666z"/><path d="m14.672 27.3333c0-.3682.2985-.6666.6667-.6666h2.6666c.3682 0 .6667.2984.6667.6666s-.2985.6667-.6667.6667h-2.6666c-.3682 0-.6667-.2985-.6667-.6667z"/><path d="m12.0053 18c0-.3682.2985-.6667.6667-.6667h18.6666c.3682 0 .6667.2985.6667.6667v13.3333c0 .3682-.2985.6667-.6667.6667h-18.6666c-.3682 0-.6667-.2985-.6667-.6667zm1.3333.6667v12h17.3334v-12z"/><path d="m10.4684 11.9939c-.2166-.0902-.4551-.1141-.68535-.0689-.23023.0452-.44192.1576-.60837.323-.16645.1653-.2802.3763-.3269.6062-.0467.23-.02427.4686.06447.6858s.23981.4033.43416.5348c.19365.1309.42163.2019.65539.2039.4977-.0007.9845.1459 1.399.4214.4156.2761.7399.6694.9319 1.13.1919.4606.2429.9678.1464 1.4573-.0965.4896-.336.9395-.6883 1.2929-.3524.3533-.8016.5942-1.2909.6921-.4893.0978-.99661.0483-1.45775-.1423-.46113-.1906-.85534-.5138-1.13271-.9286-.27737-.4147-.42543-.9025-.42543-1.4015 0-.3682.29847-.6667.66666-.6667s.66667.2985.66667.6667c0 .2351.06976.4649.20046.6604.13069.1954.31643.3477.53371.4375.21727.0898.45629.1131.68689.067.2305-.0461.4422-.1596.6082-.3261s.2789-.3785.3243-.6091c.0455-.2307.0215-.4697-.069-.6867-.0904-.217-.2432-.4023-.439-.5324-.1958-.1302-.4259-.1993-.661-.1986h-.0062c-.49797-.0032-.98383-.1538-1.39631-.4328s-.7331-.6739-.92144-1.1349c-.18833-.461-.23594-.9674-.13682-1.4554.09912-.4881.34053-.9358.69379-1.2868.35325-.351.80253-.5895 1.29117-.6855.48861-.0959.99471-.045 1.45451.1463s.8526.5144 1.1289.9287c.2764.4143.4238.9011.4238 1.3991 0 .3682-.2984.6666-.6666.6666-.3682.0001-.6667-.2984-.6667-.6666 0-.2346-.0695-.464-.1997-.6592s-.3153-.3475-.5319-.4376z"/><path d="m10.0053 17.9893c.3682 0 .6667.2985.6667.6667v1.2347c0 .3682-.2985.6666-.6667.6666s-.66668-.2984-.66668-.6666v-1.2347c0-.3682.29848-.6667.66668-.6667z"/><path d="m10.0053 9.33333c.3682 0 .6667.29848.6667.66666v1.23731c0 .3682-.2985.6667-.6667.6667s-.66668-.2985-.66668-.6667v-1.23731c0-.36818.29848-.66666.66668-.66666z"/></g></svg>