<svg fill="none" height="32" viewBox="0 0 32 32" width="32" xmlns="http://www.w3.org/2000/svg"><path d="m13.0325 31.3333c-.0765 0-.1785-.0255-.255-.051-.3315-.102-.5355-.408-.5355-.7395v-11.6543h-4.66685c-.30602 0-.58654-.0765-.84156-.255-.25501-.153-.45903-.3826-.58654-.6631s-.17851-.561-.12751-.867c.05101-.3061.15302-.5866.35703-.8161l12.26633-15.326537c.204-.255017.561-.357024.8926-.255017.3315.102007.5355.408024.5355.739554v11.6543h4.6668c.306 0 .5866.0765.8416.255.255.153.459.3825.5865.663.1275.2806.1785.5611.1275.8671s-.153.5865-.357.8161l-12.2918 15.352c-.153.1785-.3826.2805-.6121.2805zm-5.40635-14.0514h5.40635c.4336 0 .7906.357.7906.7905v10.2007l10.8382-13.5414h-5.4064c-.4335 0-.7905-.357-.7905-.7906v-10.20065z" fill="#262626"/></svg>