<svg fill="none" height="32" viewBox="0 0 32 32" width="32" xmlns="http://www.w3.org/2000/svg" xmlns:xlink="http://www.w3.org/1999/xlink"><clipPath id="a"><path d="m0 0h32v32h-32z"/></clipPath><g clip-path="url(#a)"><path clip-rule="evenodd" d="m26.1257 11.9949c-.0187-.0024-.0439-.0032-.1174-.0032h-1.3333v2.6666h1.3333c.0735 0 .0987-.0008.1174-.0031.0274-.0035.055-.0052.0826-.0052.0046 0 .0064-.0002.0078-.0004.0018-.0003.0082-.0012.0222-.0047.0275-.0069.0539-.0139.0858-.0224l.0017-.0004c.0266-.0071.0572-.0153.0903-.0237.0238-.0073.0593-.0203.0963-.0362.0627-.0268.0866-.0378.1068-.0494.0184-.0104.0365-.0215.0647-.0389l.0026-.0016c.0255-.0157.0601-.037.0984-.0589.0009-.0006.0043-.0029.0107-.0077.0121-.0093.0257-.0205.0526-.0428.0231-.0193.044-.0396.0971-.0926.0134-.0135.0274-.0264.042-.0386.0011-.0011.0033-.0034.0068-.0073.01-.0109.0213-.0242.0438-.0512.0224-.0269.0335-.0405.0428-.0526.0048-.0064.0071-.0098.0078-.0108.0074-.0129.0152-.0255.0235-.0379.0181-.0272.0397-.0644.0758-.1277.0116-.0202.0226-.0441.0494-.1068.0099-.0229.0113-.0279.0145-.0385.004-.0134.0106-.0359.0408-.1163-.0017.0044-.001.0041.0031-.0133.0018-.0078.0034-.0149.0058-.026.0009-.004.0019-.0084.003-.0137.0018-.0082.004-.0177.0064-.0283.0061-.0446.0124-.095.0194-.1507.0023-.0186.0031-.0439.0031-.1173 0-.0664-.0003-.1034-.005-.1503-.0022-.022-.0033-.0442-.0033-.0663 0-.0046-.0002-.0064-.0004-.0078-.0002-.0018-.0012-.0082-.0047-.0222-.0173-.0695-.0312-.1247-.0442-.1702-.0068-.0235-.0208-.0627-.0385-.1039-.0268-.0627-.0378-.0866-.0494-.1068-.0104-.0184-.0215-.0365-.0389-.0647l-.0016-.0026c-.0157-.0255-.037-.0601-.0589-.0984-.0006-.0009-.0029-.0043-.0077-.0107-.0093-.0121-.0204-.0257-.0428-.0526-.0193-.0231-.0396-.044-.0926-.0971-.0135-.0134-.0263-.0274-.0386-.042-.0011-.001-.0034-.0033-.0072-.0068-.011-.01-.0243-.0213-.0513-.0438-.0269-.0223-.0405-.0335-.0526-.0428-.0064-.0048-.0098-.0071-.0108-.0077-.0129-.0075-.0255-.0153-.0379-.0236-.0272-.0181-.0643-.0397-.1277-.0758-.0202-.0116-.0441-.0226-.1068-.0494-.0312-.0134-.0475-.0203-.0624-.0259-.0129-.0049-.0185-.0064-.02-.0068-.024-.006-.0476-.0133-.0708-.0219-.0016-.0005-.0061-.0017-.0148-.0038-.0079-.0018-.015-.0034-.0261-.0058-.0039-.0009-.0084-.0019-.0136-.003-.0083-.0018-.0178-.004-.0284-.0064-.0446-.0061-.095-.0124-.1506-.0193zm-.1078-1.3366c.0614 0 .1643-.0001.2731.0135l.0032.0004c.0644.0081.1359.017.2001.0262.0227.0032.0452.0076.0674.0132.0163.0041.0217.0052.0302.007.0091.0019.0219.0046.0554.0124.0374.0087.0863.0211.1423.0402.1036.029.1899.0661.2395.0874.003.0013.0058.0025.0085.0036.0025.0011.005.0022.0077.0033.0548.0235.1434.0614.2355.114l.0073.0042c.0487.0278.1164.0665.1808.1084.1008.0603.1818.128.225.1642.0028.0023.0054.0045.0079.0066s.0053.0044.0082.0068c.0412.0342.1199.0995.195.1841.0446.0447.1005.1014.1572.1694.002.0025.0042.0051.0065.0079.0387.0462.1136.1358.1768.2465.0105.0183.0216.0364.0389.0647l.0016.0026c.0159.0257.0374.0607.0595.0993.0526.0921.0905.1807.114.2355.0011.0027.0022.0052.0033.0077.0323.0755.0683.1696.0949.2628.0197.0691.0387.145.0544.2078l.0013.0053c.0251.1003.0417.2028.0445.318.0088.1025.0088.1861.0088.2467v.0053.0096c0 .0614.0001.1643-.0135.2731l-.0004.0035c-.0081.0643-.017.1357-.0262.1998-.0032.0227-.0076.0452-.0132.0674-.004.0163-.0052.0217-.007.0302-.0019.0091-.0046.0219-.0124.0554-.0105.0452-.0264.1073-.0531.1785-.0063.0167-.0111.0307-.0186.0527-.0026.0074-.0054.0157-.0087.0253-.0114.033-.0283.0812-.0508.1338-.0011.0025-.0022.005-.0033.0077-.0235.0548-.0614.1434-.114.2355l-.0042.0073c-.0278.0487-.0664.1164-.1084.1808-.0603.1008-.128.1818-.1642.225-.0023.0028-.0045.0054-.0065.0079-.0022.0025-.0044.0053-.0069.0082-.0342.0412-.0995.1199-.1841.1949-.0447.0447-.1014.1006-.1694.1572-.0025.0021-.0051.0043-.0079.0066-.0462.0387-.1358.1135-.2465.1768-.0183.0105-.0364.0216-.0647.0389l-.0026.0016c-.0257.0159-.0606.0374-.0993.0595-.0921.0526-.1807.0905-.2355.114-.0027.0011-.0052.0022-.0077.0033-.0755.0323-.1696.0683-.2628.0949-.0071.002-.0143.0039-.0214.0057-.0276.0069-.0539.0139-.0858.0224l-.0017.0005c-.0303.0081-.0658.0175-.1042.0271-.0985.0247-.1991.0411-.3118.0443-.0931.0091-.1784.009-.232.009-.0033 0-.0065 0-.0096 0h-2c-.3681 0-.6666-.2985-.6666-.6667v-4c0-.3682.2985-.6667.6666-.6667h2z" fill="#262626" fill-rule="evenodd"/><path d="m24.0084 15.0833c-.15.225-.3167.4334-.5.6417-.175.2-.3667.3917-.5667.575s-.4167.35-.6333.5c-.225.1583-.45.2917-.6917.425-.2417.125-.4833.2417-.7417.3333-.25.1-.5083.175-.775.2417-.2666.0667-.525.1167-.8.15-.2666.0333-.5416.05-.8083.05h-1.825" stroke="#262626" stroke-linecap="round" stroke-linejoin="round" stroke-width="1.33333"/><path d="m14.6416 12.6667c-.0666-.1084-.1583-.2084-.25-.3-.1-.0917-.2083-.1584-.325-.2167-.1166-.0583-.2416-.1-.3666-.125s-.2584-.0333-.3917-.025c-.1333-.0083-.2583 0-.3917.025-.1333.025-.25.0667-.3666.125-.1167.0583-.225.1333-.325.2167-.1.0916-.1834.1833-.25.3" stroke="#262626" stroke-linecap="round" stroke-linejoin="round" stroke-width="1.33333"/><path d="m19.975 12.6667c-.0667-.1084-.1583-.2084-.25-.3-.1-.0917-.2083-.1584-.325-.2167-.1166-.0583-.2417-.1-.3667-.125s-.2583-.0333-.3916-.025c-.1334-.0083-.2584 0-.3917.025s-.25.0667-.3666.125c-.1167.0583-.2251.1333-.3251.2167-.1.0916-.1833.1833-.25.3" stroke="#262626" stroke-linecap="round" stroke-linejoin="round" stroke-width="1.33333"/><path clip-rule="evenodd" d="m9.13593 4.78468c-.90921 1.97803-.77374 4.47495-.4451 6.43862.04834.2888-.09746.5754-.35938.7063-.08822.0441-.18858.1449-.2576.362-.0698.2195-.09032.5147-.04004.8399.10463.6766.4664 1.2401.90124 1.4415.16459.0701.30547.1623.42306.2564.13835.1107.24862.2369.32911.3375.00638.0079.01258.0161.01858.0243.08039.1105.17255.2502.24289.4191.05311.1273.10641.2801.13441.4581.2589 1.5343 1.3015 2.8524 2.5599 3.8053 1.2591.9534 2.5954 1.4378 3.3266 1.451.5315-.0545 1.0435-.1737 1.5309-.3629l.0081-.0031c.5006-.1868.9703-.4403 1.4027-.7609.2957-.2193.7133-.1573.9326.1385.2192.2958.1572.7133-.1386.9326-.533.3952-1.112.7078-1.7265.9375-.6177.2392-1.2594.3851-1.9143.4488-.0215.0021-.043.0031-.0645.0031-1.1259 0-2.7615-.6612-4.1618-1.7216-1.4177-1.0734-2.73682-2.6622-3.07069-4.6513l-.00151-.009h.00006c-.0056-.0364-.01838-.0819-.04813-.1533-.01223-.0294-.03467-.0698-.08143-.1352-.04811-.0591-.08474-.0961-.11132-.1173-.04623-.037-.08469-.0593-.11495-.0719-.00635-.0026-.01266-.0054-.01892-.0082-.99541-.4514-1.53036-1.5188-1.67517-2.4553-.07471-.4831-.05774-.9922.08704-1.4476.09783-.3077.26146-.6096.50854-.8497-.29432-1.98239-.40104-4.60459.61273-6.81008.55067-1.19802 1.43035-2.26898 2.76745-3.0334 1.3302-.760499 3.0721-1.19442 5.3164-1.19442s3.9858.433917 5.3154 1.19449c1.3365.76452 2.2154 1.83559 2.7655 3.03357 1.0507 2.28828.8962 5.02535.5815 7.02974.0028.0248.0043.05.0043.0755 0 .3682-.2985.6667-.6667.6667h-.025c-.1958 0-.3817-.0861-.5084-.2354-.1266-.1493-.1813-.3468-.1493-.54.3247-1.96478.4602-4.46186-.4481-6.44016-.4458-.97077-1.144-1.81949-2.2158-2.43258-1.0787-.61703-2.5769-1.01853-4.6534-1.01853s-3.5752.4015-4.6547 1.01861c-1.0725.61318-1.77147 1.46201-2.21767 2.43274z" fill="#262626" fill-rule="evenodd"/><path d="m7.6 14.0167c-.03333.2416-.075.4833-.125.7166-.05.2334-.11666.475-.19166.7-.075.2334-.15834.4584-.25834.6834s-.20833.4416-.325.65c-.11666.2083-.25.4166-.38333.6166-.14167.2-.28333.3917-.44167.575-.15833.1834-.325.3667-.5.5334-.175.1666-.35833.3333-.55.4833-.025.0167-.05.025-.06666.0417-.025.0166-.04167.0333-.06667.05-.01667.0166-.04167.0416-.05833.0583-.01667.025-.03334.0417-.05.0667-.01667.025-.025.05-.04167.075-.00833.025-.025.05-.03333.075-.00834.025-.01667.05-.01667.0833s-.00833.0583-.00833.0833v.0834c0 .025.00833.0583.00833.0833.00833.025.00833.05.025.0833.00833.025.01667.05.03333.075.00834.025.025.05.04167.075s.03333.0417.05.0667.03333.0417.05833.0583c.01667.0167.04167.0334.06667.05.275.2167.56667.4.875.5667.30833.1583.625.3.95833.4.33334.1083.66667.1833 1.01667.225.34167.05.69167.0583 1.03333.05" stroke="#262626" stroke-linecap="round" stroke-linejoin="round" stroke-width="1.33333"/><g clip-rule="evenodd" fill="#262626" fill-rule="evenodd"><path d="m25.6362 17.4523c.2887-.2285.708-.1798.9365.1089.2714.3428.5825.6253.9512.8592l.0126.0082c.0004.0003.0011.0007.002.0014.011.0071.0587.0379.1106.0813.0562.0425.0949.0815.1111.0977.0011.0011.002.0021.0029.0029.0117.0117.0213.022.0283.0298.0006.0006.0012.0012.0017.0019.0385.0341.0729.0727.1025.1149.0004.0006.0009.0012.0015.0019.0086.0107.0327.0407.0576.0781.0184.0276.0325.0523.0427.0711.0069.0126.0129.0245.0166.0318.0247.0414.0449.0853.0602.1311l.025.075c.0004.0013.0009.0029.0015.0047.0086.0251.0328.0964.0438.1929.0158.0893.0143.1604.0139.1768v.0031.083c0 .0408-.0033.0749-.0054.094-.0016.0141-.0034.0275-.0046.0357-.0031.045-.0107.0896-.0229.133-.0016.0069-.0034.0148-.0047.0201-.0076.0304-.0214.0796-.0477.1375-.0113.0298-.0281.0697-.0516.1134-.036.0767-.0751.1328-.0824.1432-.0005.0008-.0009.0013-.001.0016-.025.0374-.0491.0674-.0577.0781-.0003.0005-.0007.0009-.001.0012-.053.0769-.1151.142-.1885.1978-.0369.0308-.0716.0553-.0926.0695-.3048.2376-.6225.4358-.9479.6117-.3439.1859-.7001.3364-1.0765.4499-.3676.119-.7384.2026-1.1279.2496-.3907.0564-.7791.0642-1.1452.0555-.3681-.0088-.6593-.3143-.6506-.6823.0088-.3681.3143-.6594.6824-.6506.3311.0078.6396-.0008.9292-.0432l.0178-.0024c.3047-.0362.5955-.1015.8894-.197l.0145-.0045c.2876-.0863.5623-.2017.8329-.3479.2831-.1531.541-.3161.7794-.5039.0065-.0051.0131-.0102.0199-.0151-.0049-.0039-.0097-.0079-.0145-.0119-.4944-.3151-.9139-.6975-1.2739-1.1522-.2285-.2887-.1797-.708.1089-.9365z"/><path d="m16.0001 5.08334c.1982.00004.386.08822.5126.24062 2.2616 2.72187 5.0287 2.69036 6.9556 2.66842.2792-.00318.5408-.00616.7807-.00053.368.00864.6594.31404.6508.68213s-.314.65948-.6821.65084c-.1965-.00461-.4263-.00059-.6837.00392-1.7921.03137-4.9267.08625-7.5342-2.58324-2.5984 2.65917-5.6991 2.60047-7.4903 2.56656-.27422-.00519-.51775-.0098-.72408-.00399-.36804.01037-.67481-.27959-.68517-.64763-.01037-.36804.27958-.67481.64763-.68517.25764-.00726.53944-.00377.84059-.00004 1.92673.02389 4.64573.05759 6.89893-2.65152.1267-.15234.3146-.24042.5127-.24037z"/><path d="m9.84856 22.4065c.0235-.003.0589-.0065.10144-.0065h.0749c.0425 0 .078.0035.1015.0065.0115.0014.0223.003.0306.0043.0352.003.0701.0088.1045.0174.0083.0014.0192.0035.0307.0059.0233.0048.056.0126.0936.0251l.075.025c.0803.0268.1452.0594.207.0989l.0046.0025c.0113.0062.0371.0204.0668.0402.0254.0169.0581.0408.0931.073.0055.0044.0151.0121.025.0204.0127.0107.0331.0284.0558.0511s.0403.0431.051.0558c.0065.0077.0127.0152.0171.0208.0255.0261.0683.0727.1106.1348l.0011.0015.0044.006c.0033.0046.0086.0117.0145.0202.0114.0162.0278.0405.0454.0721.0243.0384.0413.0725.0528.0978.0208.0458.0352.0896.0386.0999.0002.0007.0004.0013.0005.0017l.025.0749c.0001.0001-.0001-.0004 0 0 .0032.0086.0293.0799.0428.175.018.0927.0168.1668.0165.1831-.0001.0013-.0001.0022-.0001.0028 0 .1923.0143.3909.0375.5999.0215.1858.0572.3777.1063.5601.0545.2025.1134.392.1836.5674.0693.1733.1551.3466.2559.533.0937.1652.2035.3337.3226.4975.1135.1561.2358.3005.3775.4496l.0122.0132c.1193.1325.2578.2584.4156.3861.1575.1275.3164.2425.4771.3404l.0069.0042 2.4713 1.5455 2.4619-1.5414c.1607-.0979.3197-.2129.4772-.3404.1481-.1199.2852-.2492.4278-.3993l.0119-.0122c.1259-.1259.245-.2716.3656-.4374.1265-.174.2318-.33.3196-.4921.1021-.1884.1889-.3634.2589-.5384.0701-.1754.129-.3649.1836-.5674.0498-.1852.085-.3685.1061-.5586.0233-.2096.0376-.4086.0376-.6014 0-.0005 0-.0015 0-.0028-.0004-.0193-.0021-.1198.0287-.2365.0014-.0079.0032-.0177.0054-.0279.0048-.0233.0126-.056.0251-.0936l.025-.075c.01-.0299.0221-.0591.0362-.0873.0058-.0116.0109-.0213.0145-.0278l.0039-.007c.0155-.0357.0342-.07.0558-.1024.0005-.0009.0019-.0032.0046-.0077l.0009-.0015c.0065-.0109.0196-.0328.0369-.0586.0184-.0276.0388-.0538.0611-.0784.0043-.0053.0123-.0153.0211-.0258.0011-.0012.0022-.0025.0033-.0039.0414-.0541.079-.0915.0949-.1073l.0029-.0029.0028-.0029c.0197-.0198.073-.0732.1503-.1258l.0015-.0011.0059-.0044c.0046-.0034.0117-.0086.0202-.0145.0163-.0114.0406-.0278.0722-.0454.0383-.0244.0725-.0414.0978-.0529.0458-.0208.0895-.0351.0998-.0385l.0017-.0006.075-.025c.0377-.0125.0703-.0202.0936-.0251.0103-.0021.0201-.004.0279-.0054.1167-.0308.2172-.029.2366-.0287h.0027.0749.0029c.0164-.0003.0904-.0016.1831.0165.0951.0135.1656.0393.1741.0424.0005.0002-.0001 0 0 0l.0022.0008 5.6834 1.9083c.0119.004.0237.0084.0354.0131l.0066.0026c.1209.0484.2606.1043.4027.1705l.0162.0079c.0206.0103.0443.0219.0701.0346.0925.0454.2129.1045.3209.1662l.0094.0054c.1106.0632.2487.142.3809.2336l.0053.0037c.1052.0728.2251.1558.3467.2494.1221.0938.2369.1894.3524.2953l.0078.0071c.0923.0846.2063.1891.3147.3062.1024.103.2112.2216.3137.355l.0046.0058c.0803.1044.1722.224.2568.3462.0836.1207.1694.2538.2474.3903l.0048.0084c.0626.1096.1391.2435.2082.3904.0624.1251.1277.2649.1855.4094.0487.1219.0919.2533.1257.3562.0075.0228.0145.0443.0211.0639l.004.0119c.047.1504.0837.2891.1186.4289.0032.0129.0061.0258.0085.0388.0037.0198.0096.048.0166.0817.019.0919.0465.2245.0619.337.028.1536.047.3079.0566.4626l.0005.0082c.0081.1281.0175.2791.0175.4334v1.3333c0 .3682-.2985.6667-.6667.6667s-.6666-.2985-.6666-.6667v-1.3333c0-.109-.0069-.2216-.0154-.3584-.0066-.1057-.0198-.2119-.0399-.3187-.0025-.0134-.0046-.0268-.0063-.0402-.008-.0647-.0181-.1123-.0323-.1793-.009-.0425-.0197-.0928-.0325-.1602-.0295-.1173-.0578-.2218-.0915-.3304-.0096-.0286-.0185-.0557-.027-.0815-.0327-.0992-.0592-.1797-.0908-.2587-.041-.1025-.0908-.2098-.144-.3161l-.0078-.0162c-.0448-.0961-.0977-.1893-.1664-.3095-.0553-.0968-.1195-.1971-.1859-.293-.0638-.0922-.1367-.1871-.222-.298-.0607-.079-.1316-.157-.2096-.2351-.0069-.0068-.0135-.0138-.0201-.0209-.0688-.0751-.1471-.1474-.2507-.2424-.0845-.0775-.1697-.1485-.2643-.2213-.093-.0715-.1878-.1373-.298-.2136-.0806-.0558-.1717-.1084-.293-.1777-.0683-.039-.1348-.0717-.2181-.1127-.0305-.0149-.0632-.031-.099-.0489-.0981-.0454-.1986-.0861-.3155-.1329l-5.6367-1.8926h-.001c-.004.0046-.0086.0092-.0127.0137-.0007.0014-.0014.0027-.002.004-.0003.0016-.0007.0033-.001.005-.0018.2435-.0203.4811-.0456.7092-.0289.2599-.077.5099-.1439.7581-.0621.2308-.1365.4746-.2331.7159-.0966.2416-.2098.4667-.3244.6783-.1289.2378-.2736.4485-.4137.6412-.1445.1987-.3068.4008-.4949.5898-.1723.181-.3502.3497-.5498.5113-.1914.1549-.3979.3058-.6191.4406l-2.8049 1.7563c-.2163.1354-.4909.1354-.7073.0001l-2.8217-1.7646c-.2212-.1349-.4278-.2858-.6193-.4408-.19-.1538-.3826-.3258-.5615-.5237-.1728-.1822-.3318-.3692-.4832-.5773-.1463-.2012-.2855-.4143-.4078-.6308l-.006-.0104c-.1146-.2116-.2277-.4367-.3243-.6783-.0965-.2413-.171-.4851-.2331-.716-.0675-.2505-.115-.508-.1435-.7552l-.0004-.0028c-.0255-.2299-.044-.4694-.0456-.7148-.00544-.0058-.01043-.0113-.01494-.0164-.0002 0 .00021 0 0 0-.00295.0006-.00645.0012-.00922.0017l-5.62916 1.8902c-.12001.048-.22271.0896-.32319.1365-.11473.0535-.21386.1033-.3095.158-.12122.0693-.21238.1218-.29295.1776-.03667.0254-.06874.0473-.0974.0668-.07712.0526-.12951.0883-.18028.1306-.00667.0055-.01344.011-.02032.0163-.09464.0728-.17978.1438-.26432.2213-.10359.095-.1819.1673-.25072.2424-.09035.0986-.16858.1841-.23811.2669-.0253.0328-.04741.0611-.0672.0864-.05655.0722-.09423.1204-.13367.1817-.00411.0064-.00833.0127-.01266.019-.0664.0959-.13066.1961-.18596.2929-.06869.1202-.12155.2135-.16638.3095-.01878.0403-.03565.0758-.05108.1084-.04057.0856-.07121.1502-.10072.224-.04068.1017-.07644.208-.116.3346l-.00375.012c-.03214.0964-.05957.2042-.09414.3425-.02698.1079-.04698.2148-.06024.321l-.04308.3446c.00328.1058.00104.2193-.00056.3001-.00066.0335-.00122.0615-.00122.0809v1.3333c0 .3682-.29847.6667-.666663.6667-.36819 0-.666667-.2985-.666667-.6667v-1.3333c0-.0771.00133914-.1328.00246644-.1796.00165552-.0689.00285411-.1187-.00131601-.1896-.00239116-.0406-.00105303-.0814.00399763-.1218l.05000004-.4c.0200674-.1606.0500689-.3203.0897569-.479l.002554-.0102c.031186-.1248.069164-.2768.118007-.4244.043279-.1382.090369-.28.148883-.4263.046434-.1161.101783-.2327.146894-.3277.01246-.0262.02414-.0508.034635-.0733.07007-.1502.148363-.2872.212167-.3988l.004793-.0084c.076136-.1332.15961-.2632.241272-.3816.07485-.115.16087-.2246.22412-.3052.01611-.0205.03075-.0392.04335-.0556.00529-.0068.01072-.0136.01627-.0203.09349-.1122.19414-.222.28256-.3184l.00482-.0053c.11145-.1216.22968-.2299.3248-.3171l.00782-.0072c.11245-.103.22433-.1964.34282-.2879.10343-.085.22363-.1666.30778-.2237.02025-.0138.03841-.0261.05374-.0367.13229-.0916.27033-.1705.38091-.2336l.00947-.0055c.1377-.0786.27191-.1455.40717-.2086.14206-.0663.28176-.1222.40265-.1705l.00668-.0027c.01167-.0047.02347-.009.03539-.013l5.68333-1.9083.00139-.0005c.03767-.0125.07029-.0203.09359-.0251.01153-.0024.02246-.0045.03076-.0059.03432-.0086.06927-.0144.10451-.0174.0083-.0013.0191-.0029.03052-.0043zm12.17164 1.3125c.0002-.0002.0002-.0002 0 0z"/><path d="m16 29.3333c.3682 0 .6666.2985.6666.6667v1.3333c0 .3682-.2984.6667-.6666.6667s-.6667-.2985-.6667-.6667v-1.3333c0-.3682.2985-.6667.6667-.6667z"/></g></g></svg>