<svg fill="none" height="32" viewBox="0 0 32 32" width="32" xmlns="http://www.w3.org/2000/svg"><path d="m12 21.6-4.66665-4.6667c-.10506-.14-.23668-.258-.38734-.3473-.15067-.0892-.31743-.1478-.49077-.1726-.17333-.0248-.34985-.0151-.51947.0283-.16961.0435-.32901.1199-.46909.225-.14007.105-.25809.2366-.3473.3873s-.14787.3174-.17263.4908c-.02476.1733-.01514.3498.02831.5194.04346.1697.1199.3291.22496.4691.0758.1011.16559.1909.26666.2667l5.58662 5.5867c.2499.2483.5878.3877.9401.3877.3522 0 .6901-.1394.9399-.3877l14.1334-14.12c.2829-.2122.4699-.52806.5199-.87813s-.0411-.70566-.2533-.98856c-.2121-.2829-.528-.46993-.8781-.51994-.35-.05-.7056.0411-.9885.25327-.1011.07581-.1909.16559-.2667.26667z" fill="#8bc34a"/></svg>