<svg fill="none" height="32" viewBox="0 0 32 32" width="32" xmlns="http://www.w3.org/2000/svg" xmlns:xlink="http://www.w3.org/1999/xlink"><clipPath id="a"><path d="m0 0h32v32h-32z"/></clipPath><g clip-path="url(#a)" clip-rule="evenodd" fill="#262626" fill-rule="evenodd"><path d="m.585786 5.91911c.375073-.37507.883784-.58578 1.414214-.58578.36819 0 .66667.29848.66667.66666 0 .36819-.29848.66667-.66667.66667-.17681 0-.34638.07024-.4714.19526-.12503.12503-.19527.2946-.19527.47141v21.33337c0 .5304.21072 1.0391.58579 1.4142.37507.375.88378.5858 1.41421.5858h11.99997c.5305 0 1.0392-.2108 1.4142-.5858.3751-.3751.5858-.8838.5858-1.4142v-21.33337c0-.17681-.0702-.34638-.1952-.47141-.1251-.12502-.2946-.19526-.4714-.19526-.3682 0-.6667-.29848-.6667-.66667 0-.36818.2985-.66666.6667-.66666.5304 0 1.0391.21071 1.4142.58578.3751.37508.5858.88378.5858 1.41422v21.33337c0 .884-.3512 1.7319-.9763 2.357-.6252.6251-1.473.9763-2.3571.9763h-11.99997c-.88405 0-1.7319-.3512-2.357019-.9763-.625121-.6251-.976311-1.473-.976311-2.357v-21.33337c0-.53043.210714-1.03914.585786-1.41422z"/><path d="m1.33331 5.99999c0-.36818.29848-.66666.66667-.66666h14.66662c.3682 0 .6667.29848.6667.66666 0 .36819-.2985.66667-.6667.66667h-14.66662c-.36819 0-.66667-.29848-.66667-.66667z"/><path d="m0 15.3333c0-.3682.298477-.6666.666667-.6666h17.333333c.3682 0 .6667.2984.6667.6666s-.2985.6667-.6667.6667h-17.333333c-.36819 0-.666667-.2985-.666667-.6667z"/><path d="m2.672 24.6667c0-.3682.29847-.6667.66666-.6667h1.33334c.36819 0 .66666.2985.66666.6667s-.29847.6666-.66666.6666h-1.33334c-.36819 0-.66666-.2984-.66666-.6666z"/><path d="m6.672 24.6667c0-.3682.29847-.6667.66666-.6667h1.33334c.36819 0 .66666.2985.66666.6667s-.29847.6666-.66666.6666h-1.33334c-.36819 0-.66666-.2984-.66666-.6666z"/><path d="m10.672 24.6667c0-.3682.2985-.6667.6667-.6667h1.3333c.3682 0 .6667.2985.6667.6667s-.2985.6666-.6667.6666h-1.3333c-.3682 0-.6667-.2984-.6667-.6666z"/><path d="m2.672 27.3333c0-.3682.29847-.6666.66666-.6666h1.33334c.36819 0 .66666.2984.66666.6666s-.29847.6667-.66666.6667h-1.33334c-.36819 0-.66666-.2985-.66666-.6667z"/><path d="m6.672 27.3333c0-.3682.29847-.6666.66666-.6666h1.33334c.36819 0 .66666.2984.66666.6666s-.29847.6667-.66666.6667h-1.33334c-.36819 0-.66666-.2985-.66666-.6667z"/><path d="m10.672 27.3333c0-.3682.2985-.6666.6667-.6666h1.3333c.3682 0 .6667.2984.6667.6666s-.2985.6667-.6667.6667h-1.3333c-.3682 0-.6667-.2985-.6667-.6667z"/><path d="m2.672 22c0-.3682.29847-.6667.66666-.6667h1.33334c.36819 0 .66666.2985.66666.6667s-.29847.6667-.66666.6667h-1.33334c-.36819 0-.66666-.2985-.66666-.6667z"/><path d="m6.672 22c0-.3682.29847-.6667.66666-.6667h1.33334c.36819 0 .66666.2985.66666.6667s-.29847.6667-.66666.6667h-1.33334c-.36819 0-.66666-.2985-.66666-.6667z"/><path d="m10.672 22c0-.3682.2985-.6667.6667-.6667h1.3333c.3682 0 .6667.2985.6667.6667s-.2985.6667-.6667.6667h-1.3333c-.3682 0-.6667-.2985-.6667-.6667z"/><path d="m2.672 19.3333c0-.3682.29847-.6666.66666-.6666h2.66667c.36819 0 .66667.2984.66667.6666s-.29848.6667-.66667.6667h-2.66667c-.36819 0-.66666-.2985-.66666-.6667z"/><path d="m8.00537 19.3333c0-.3682.29848-.6666.66667-.6666h1.33336c.3682 0 .6666.2984.6666.6666s-.2984.6667-.6666.6667h-1.33336c-.36819 0-.66667-.2985-.66667-.6667z"/><path d="m12.0054 19.3333c0-.3682.2984-.6666.6666-.6666h2.6667c.3682 0 .6667.2984.6667.6666s-.2985.6667-.6667.6667h-2.6667c-.3682 0-.6666-.2985-.6666-.6667z"/><path d="m15.3387 21.3333c.3682 0 .6666.2985.6666.6667v5.3333c0 .3682-.2984.6667-.6666.6667s-.6667-.2985-.6667-.6667v-5.3333c0-.3682.2985-.6667.6667-.6667z"/><path d="m20.672.00000381c-.3682 0-.6667.29847719-.6667.66666719v14.666629c0 .3682.2985.6667.6667.6667h4 6.6666c.3682 0 .6667-.2985.6667-.6667v-14.666629c0-.36819-.2985-.66666719-.6667-.66666719h-6.6666zm3.3333 1.33333619h-2.6667v13.33336h2.6667zm1.3333 13.33336v-13.33336h5.3334v13.33336z"/><path d="m28.672 2.66667c.3682 0 .6666.29848.6666.66667v2c0 .36819-.2984.66667-.6666.66667s-.6667-.29848-.6667-.66667v-2c0-.36819.2985-.66667.6667-.66667z"/><path d="m22.8673 22.8619c.2603-.2603.6824-.2603.9428 0l2.1952 2.1953 2.1953-2.1953c.2603-.2603.6825-.2603.9428 0 .2604.2604.2604.6825 0 .9428l-2.6667 2.6667c-.2603.2604-.6824.2604-.9428 0l-2.6666-2.6667c-.2604-.2603-.2604-.6824 0-.9428z"/><path d="m26.0054 18.6667c.3681 0 .6666.2984.6666.6666v6.6667c0 .3682-.2985.6667-.6666.6667-.3682 0-.6667-.2985-.6667-.6667v-6.6667c0-.3682.2985-.6666.6667-.6666z"/></g></svg>