<svg fill="none" height="32" viewBox="0 0 32 32" width="32" xmlns="http://www.w3.org/2000/svg" xmlns:xlink="http://www.w3.org/1999/xlink"><clipPath id="a"><path d="m0 0h32v32h-32z"/></clipPath><g clip-path="url(#a)" clip-rule="evenodd" fill="#262626" fill-rule="evenodd"><path d="m5.5621 7.5621c1.00019-1.0002 2.35674-1.5621 3.77123-1.5621 1.41447 0 2.77107.5619 3.77127 1.5621 1.0002 1.00019 1.5621 2.35674 1.5621 3.7712 0 1.4145-.5619 2.7711-1.5621 3.7713s-2.3568 1.5621-3.77127 1.5621c-1.41449 0-2.77104-.5619-3.77123-1.5621-1.0002-1.0002-1.5621-2.3568-1.5621-3.7713 0-1.41446.5619-2.77101 1.5621-3.7712zm3.77123-.22877c-1.06086 0-2.07828.42143-2.82842 1.17158-.75015.75014-1.17158 1.76759-1.17158 2.82839 0 1.0609.42143 2.0783 1.17158 2.8285.75014.7501 1.76756 1.1715 2.82842 1.1715 1.06087 0 2.07827-.4214 2.82847-1.1715.7501-.7502 1.1715-1.7676 1.1715-2.8285 0-1.0608-.4214-2.07825-1.1715-2.82839-.7502-.75015-1.7676-1.17158-2.82847-1.17158z"/><path d="m9.33335 6c.36819 0 .66665.29848.66665.66667v4.00003h4c.3682 0 .6667.2984.6667.6666s-.2985.6667-.6667.6667h-4.66665c-.36819 0-.66666-.2985-.66666-.6667v-4.66663c0-.36819.29847-.66667.66666-.66667z"/><path d="m14.0318 24.0008c.3678.0175.6517.3299.6341.6977-.0994 2.0823-.849 4.0811-2.1433 5.7154-.2286.2886-.6479.3373-.9365.1087s-.3373-.6479-.1087-.9365c1.1212-1.4158 1.7706-3.1473 1.8567-4.9512.0176-.3678.3299-.6517.6977-.6341z"/><path d="m17.9682 24.0008c.3678-.0176.6801.2663.6977.6341.0861 1.8039.7355 3.5354 1.8567 4.9512.2286.2886.1799.7079-.1087.9365s-.7079.1799-.9365-.1087c-1.2943-1.6343-2.0439-3.6331-2.1433-5.7154-.0176-.3678.2663-.6802.6341-.6977z"/><path d="m9.33203 30c0-.3682.29848-.6667.66667-.6667h12c.3682 0 .6667.2985.6667.6667s-.2985.6667-.6667.6667h-12c-.36819 0-.66667-.2985-.66667-.6667z"/><path d="m0 20.6667c0-.3682.298477-.6667.666667-.6667h30.666633c.3682 0 .6667.2985.6667.6667s-.2985.6666-.6667.6666h-30.666633c-.36819 0-.666667-.2984-.666667-.6666z"/><path d="m0 2c0-.36819.298477-.66666.666667-.66666h30.666633c.3682 0 .6667.29847.6667.66666v22.6667c0 .3682-.2985.6666-.6667.6666h-30.666633c-.36819 0-.666667-.2984-.666667-.6666zm1.33333.66667v21.33333h29.33337v-21.33333z"/><path d="m27.7601 5.48786c.2829.23571.3211.65608.0854.93893l-3.3333 4.00001c-.1132.1358-.2757.2211-.4518.2371s-.3513-.0386-.4872-.1517l-3.4609-2.88414-1.5789 2.10528c-.221.29456-.6388.35426-.9334.13333-.2945-.22091-.3542-.63878-.1333-.93333l2-2.66667c.1096-.14619.2745-.24096.456-.26216s.3637.03303.5041.15001l3.4879 2.90655 2.9065-3.48786c.2357-.28285.6561-.32106.9389-.08535z"/><path d="m26 14c.3682 0 .6666.2985.6666.6667v2c0 .3682-.2984.6666-.6666.6666s-.6667-.2984-.6667-.6666v-2c0-.3682.2985-.6667.6667-.6667z"/><path d="m23.3334 13.3333c.3681 0 .6666.2985.6666.6667v2.6667c0 .3682-.2985.6666-.6666.6666-.3682 0-.6667-.2984-.6667-.6666v-2.6667c0-.3682.2985-.6667.6667-.6667z"/><path d="m20.6667 12c.3682 0 .6666.2985.6666.6667v4c0 .3682-.2984.6666-.6666.6666s-.6667-.2984-.6667-.6666v-4c0-.3682.2985-.6667.6667-.6667z"/><path d="m18 14c.3682 0 .6666.2985.6666.6667v2c0 .3682-.2984.6666-.6666.6666s-.6667-.2984-.6667-.6666v-2c0-.3682.2985-.6667.6667-.6667z"/></g></svg>