<svg fill="none" height="32" viewBox="0 0 32 32" width="32" xmlns="http://www.w3.org/2000/svg" xmlns:xlink="http://www.w3.org/1999/xlink"><clipPath id="a"><path d="m0 0h32v32h-32z"/></clipPath><g clip-path="url(#a)" clip-rule="evenodd" fill="#262626" fill-rule="evenodd"><path d="m6.54936 11.289c.20859.3034.13173.7184-.17167.927l-5.04436 3.468v13.6493c0 .3537.14048.6928.39053.9428.25005.2501.58919.3906.94281.3906h26.66663c.3537 0 .6928-.1405.9428-.3906.2501-.25.3906-.5891.3906-.9428v-13.6493l-5.0444-3.468c-.3034-.2086-.3803-.6236-.1717-.927s.6237-.3803.9271-.1717l5.3333 3.6667c.1809.1243.289.3298.289.5493v14c0 .7073-.281 1.3856-.7811 1.8857-.5.5-1.1783.781-1.8856.781h-26.66663c-.70725 0-1.38553-.281-1.885621-.781-.500097-.5001-.781049-1.1784-.781049-1.8857v-14c0-.2195.108078-.425.288981-.5493l5.333329-3.6667c.30341-.2086.71846-.1317.92705.1717z"/><path d="m10.9169 21.4794c.1182-.0945.2651-.1461.4165-.1461h9.3333c.1514 0 .2982.0516.4165.1461l6.6666 5.3334c.2875.23.3341.6495.1041.937s-.6495.3341-.937.1041l-6.4841-5.1872h-8.8656l-6.48405 5.1872c-.2875.23-.70703.1834-.93704-.1041-.23-.2875-.18339-.707.10412-.937z"/><path d="m31.8881 14.9635c.2042.3064.1214.7203-.1849.9245l-8 5.3334c-.3064.2042-.7203.1214-.9245-.1849-.2043-.3064-.1215-.7203.1849-.9245l8-5.3334c.3063-.2042.7202-.1214.9245.1849z"/><path d="m.111976 14.9635c.204235-.3063.618148-.3891.924504-.1849l8 5.3334c.30635.2042.38913.6181.1849.9245-.20424.3063-.61815.3891-.9245.1849l-8.000004-5.3334c-.3063521-.2042-.3891347-.6181-.1849-.9245z"/><path d="m5.9191.585786c.37507-.375072.88378-.585786 1.41421-.585786h17.33329c.5305 0 1.0392.210713 1.4143.585786.375.375074.5857.883784.5857 1.414214v16.8893c0 .3682-.2984.6667-.6666.6667s-.6667-.2985-.6667-.6667v-16.8893c0-.17681-.0702-.34638-.1952-.4714-.1251-.12503-.2946-.19527-.4715-.19527h-17.33329c-.17681 0-.34638.07024-.4714.19527-.12503.12502-.19526.29459-.19526.4714v16.8893c0 .3682-.29848.6667-.66667.6667s-.66667-.2985-.66667-.6667v-16.8893c0-.53043.21072-1.039141.58579-1.414214z"/><path d="m14.1144 8.78105c.5001-.5001 1.1783-.78105 1.8856-.78105.7072 0 1.3855.28095 1.8856.78105s.781 1.17837.781 1.88565c0 .7072-.2809 1.3855-.781 1.8856s-1.1784.781-1.8856.781c-.7073 0-1.3855-.2809-1.8856-.781s-.7811-1.1784-.7811-1.8856c0-.70728.281-1.38555.7811-1.88565zm1.8856.55228c-.3536 0-.6928.14048-.9428.39053-.2501.25005-.3906.58914-.3906.94284 0 .3536.1405.6927.3906.9428.25.25.5892.3905.9428.3905s.6927-.1405.9428-.3905c.25-.2501.3905-.5892.3905-.9428 0-.3537-.1405-.69279-.3905-.94284-.2501-.25005-.5892-.39053-.9428-.39053z"/><path d="m12.0822 6.08636c1.1347-.96154 2.5861-1.46736 4.0726-1.41935l.0146.00064c1.5926.08641 3.0897.78662 4.1769 1.95355 1.086 1.16555 1.6785 2.70613 1.6537 4.2988v.7467c0 .6188-.2458 1.2123-.6834 1.6499s-1.0311.6834-1.6499.6834c-.6189 0-1.2124-.2458-1.65-.6834-.4375-.4376-.6834-1.0311-.6834-1.6499v-1c0-.3682.2985-.6667.6667-.6667s.6667.2985.6667.6667v1c0 .2652.1053.5195.2928.7071.1876.1875.4419.2929.7072.2929.2652 0 .5195-.1054.7071-.2929.1875-.1876.2929-.4419.2929-.7071v-.763c.0206-1.24986-.4438-2.45904-1.2959-3.37361-.8504-.91278-2.0209-1.4612-3.2663-1.53067-1.1537-.03546-2.2796.35788-3.1603 1.10417-.8826.74787-1.4559 1.79687-1.6088 2.94351-.1529 1.1467.1256 2.3093.7813 3.2622s1.6419 1.6283 2.7673 1.8952c.7619.1795 1.5563.1694 2.3134-.0293.3562-.0935.7206.1194.8141.4756.0934.3561-.1195.7206-.4756.814-.9682.2541-1.9838.267-2.9581.0374-1.4472-.3431-2.7163-1.2118-3.5595-2.437-.8431-1.2253-1.2011-2.72-1.0045-4.1943.1965-1.47427.9337-2.823 2.0684-3.78454z"/></g></svg>