<svg fill="none" height="32" viewBox="0 0 32 32" width="32" xmlns="http://www.w3.org/2000/svg" xmlns:xlink="http://www.w3.org/1999/xlink"><clipPath id="a"><path d="m0 0h31.2005v32h-31.2005z"/></clipPath><g clip-path="url(#a)" clip-rule="evenodd" fill="#262626" fill-rule="evenodd"><path d="m5.47196 13.662v3.3859c0 .3729-.30231.6753-.67522.6753s-.67522-.3024-.67522-.6753v-3.3923c0-.1724.04015-.3312.05973-.4085.00131-.0052.00253-.0101.00365-.0145.01194-.0478.02909-.0942.05112-.1382.06748-.135.15007-.2639.27773-.3916.12766-.1276.2566-.2102.39156-.2777.23378-.1169.46263-.1152.54691-.1146.00538.0001.01017.0001.01434.0001h20.24574c.1725 0 .3312.0401.4086.0597.0052.0013.01.0026.0145.0037.0478.0119.0941.0291.1382.0511.1349.0675.2639.1501.3915.2777.1277.1277.2103.2566.2778.3916.1169.2338.1152.4626.1145.5469v.0143 3.3707c0 .3729-.3023.6752-.6752.6752-.373 0-.6753-.3023-.6753-.6752v-3.3651c-.0003-.0001-.0006-.0001-.0009-.0002h-20.2339c-.00005.0004-.0001.0007-.00014.001z"/><path d="m15.6003 12.5051c.3729 0 .6752.3023.6752.6752v3.8676c0 .3729-.3023.6752-.6752.6752s-.6753-.3023-.6753-.6752v-3.8676c0-.3729.3024-.6752.6753-.6752z"/><path d="m1.75014 19.7758c-.21929 0-.40513.1818-.40513.4052v10.0688c0 .2321.17305.4052.40513.4052h6.09318c.21929 0 .40513-.1818.40513-.4052v-10.0688c0-.2321-.17305-.4052-.40513-.4052zm-1.75557213.4052c0-.9867.80807813-1.7556 1.75557213-1.7556h6.09318c.97791 0 1.75557.7776 1.75557 1.7556v10.0688c0 .9867-.80808 1.7556-1.75557 1.7556h-6.09318c-.977911 0-1.75557213-.7777-1.75557213-1.7556z"/><path d="m12.5537 19.7758c-.2321 0-.4052.1731-.4052.4052v10.0688c0 .2321.1731.4052.4052.4052h6.0931c.2193 0 .4052-.1818.4052-.4052v-10.0688c0-.2321-.1731-.4052-.4052-.4052zm-1.7556.4052c0-.978.7777-1.7556 1.7556-1.7556h6.0931c.978 0 1.7556.7776 1.7556 1.7556v10.0688c0 .9867-.8081 1.7556-1.7556 1.7556h-6.0931c-.9779 0-1.7556-.7777-1.7556-1.7556z"/><path d="m23.3572 19.7758c-.2321 0-.4051.1731-.4051.4052v10.0688c0 .2321.173.4052.4051.4052h6.0932c.2193 0 .4051-.1818.4051-.4052v-10.0688c0-.2321-.173-.4052-.4051-.4052zm-1.7556.4052c0-.978.7777-1.7556 1.7556-1.7556h6.0932c.9779 0 1.7555.7776 1.7555 1.7556v10.0688c0 .9867-.808 1.7556-1.7555 1.7556h-6.0932c-.9779 0-1.7556-.7777-1.7556-1.7556z"/><path d="m16.9582.0365817c.265.0980653.4409.3507173.4409.6332373v3.840651h1.291c.002 0 .0049-.00006.0087-.00014.05-.00106.2479-.00526.4445.09303.0649.03246.1242.07516.1755.12648.0012.00116.0029.00288.0053.00513.0302.02929.1537.14903.2292.3.0983.19657.0941.39446.093.44452 0 .00375-.0001.00667-.0001.00869 0 .11121-.0193.23406-.0744.35797-.0473.10639-.1094.18751-.1655.24733l-4.4171 5.14962c-.1839.2145-.4819.2917-.7468.1937-.265-.0981-.4409-.3508-.4409-.6333v-3.84064h-1.291c-.2265 0-.3899-.08253-.4462-.11095-.0026-.0013-.0049-.00248-.007-.00354-.1739-.08695-.3231-.23612-.41-.41001-.0983-.19657-.0941-.39447-.0931-.44452.0001-.00375.0002-.00667.0002-.00869 0-.1112.0193-.23406.0744-.35797.0473-.10639.1094-.18751.1655-.24733l4.417-5.149634c.184-.2144424.482-.2916995.7469-.1936343zm-3.5842 5.5758483h1.1027c.3729 0 .6752.3023.6752.67521v2.69155l2.6747-3.11828h-1.1027c-.373 0-.6753-.30231-.6753-.67522v-2.69154z"/><path d="m1.96082 29.3855c0-.3729.3023-.6752.67521-.6752h4.32141c.37291 0 .67522.3023.67522.6752 0 .373-.30231.6753-.67522.6753h-4.32141c-.37291 0-.67521-.3023-.67521-.6753z"/><path d="m1.96082 27.2681c0-.373.3023-.6753.67521-.6753h4.32141c.37291 0 .67522.3023.67522.6753 0 .3729-.30231.6752-.67522.6752h-4.32141c-.37291 0-.67521-.3023-.67521-.6752z"/><path d="m1.96082 25.1506c0-.3729.3023-.6752.67521-.6752h4.32141c.37291 0 .67522.3023.67522.6752s-.30231.6752-.67522.6752h-4.32141c-.37291 0-.67521-.3023-.67521-.6752z"/><path d="m12.7643 29.3855c0-.3729.3023-.6752.6753-.6752h4.3214c.3729 0 .6752.3023.6752.6752 0 .373-.3023.6753-.6752.6753h-4.3214c-.373 0-.6753-.3023-.6753-.6753z"/><path d="m23.5679 29.3855c0-.3729.3023-.6752.6752-.6752h4.3214c.3729 0 .6752.3023.6752.6752 0 .373-.3023.6753-.6752.6753h-4.3214c-.3729 0-.6752-.3023-.6752-.6753z"/><path d="m23.5679 27.2681c0-.373.3023-.6753.6752-.6753h4.3214c.3729 0 .6752.3023.6752.6753 0 .3729-.3023.6752-.6752.6752h-4.3214c-.3729 0-.6752-.3023-.6752-.6752z"/><path d="m23.5679 25.1506c0-.3729.3023-.6752.6752-.6752h4.3214c.3729 0 .6752.3023.6752.6752s-.3023.6752-.6752.6752h-4.3214c-.3729 0-.6752-.3023-.6752-.6752z"/><path d="m23.5679 23.0547c0-.3729.3023-.6752.6752-.6752h4.3214c.3729 0 .6752.3023.6752.6752s-.3023.6752-.6752.6752h-4.3214c-.3729 0-.6752-.3023-.6752-.6752z"/><path d="m12.7643 27.2681c0-.373.3023-.6753.6753-.6753h4.3214c.3729 0 .6752.3023.6752.6753 0 .3729-.3023.6752-.6752.6752h-4.3214c-.373 0-.6753-.3023-.6753-.6752z"/></g></svg>