<svg fill="none" height="32" viewBox="0 0 32 32" width="32" xmlns="http://www.w3.org/2000/svg"><g clip-rule="evenodd" fill="#262626" fill-rule="evenodd"><path d="m8.00531 16.6667c0-.3682.29848-.6667.66667-.6667h14.66662c.3682 0 .6667.2985.6667.6667v10.6666c0 .3682-.2985.6667-.6667.6667h-14.66662c-.36819 0-.66667-.2985-.66667-.6667zm1.33333.6666v9.3334h13.33336v-9.3334z"/><path d="m8.00531 19.3333c0-.3682.29848-.6666.66667-.6666h14.66662c.3682 0 .6667.2984.6667.6666s-.2985.6667-.6667.6667h-14.66662c-.36819 0-.66667-.2985-.66667-.6667z"/><path d="m12.672 16c.3682 0 .6666.2985.6666.6667v10.6666c0 .3682-.2984.6667-.6666.6667s-.6667-.2985-.6667-.6667v-10.6666c0-.3682.2985-.6667.6667-.6667z"/><path d="m16.672 16c.3682 0 .6666.2985.6666.6667v10.6666c0 .3682-.2984.6667-.6666.6667s-.6667-.2985-.6667-.6667v-10.6666c0-.3682.2985-.6667.6667-.6667z"/><path d="m6 1.33333c-.17681 0-.34638.07024-.4714.19527-.12503.12502-.19527.29459-.19527.4714v28c0 .1768.07024.3464.19527.4714.12502.125.29459.1953.4714.1953h20c.1768 0 .3464-.0703.4714-.1953s.1953-.2946.1953-.4714v-19.7239l-8.9428-8.94277zm-1.41421-.747544c.37507-.375072.88378-.585786 1.41421-.585786h12c.1768 0 .3464.0702379.4714.195262l9.3333 9.333328c.1251.12503.1953.2946.1953.47141v20c0 .5304-.2107 1.0391-.5858 1.4142s-.8838.5858-1.4142.5858h-20c-.53043 0-1.03914-.2107-1.41421-.5858-.37508-.3751-.58579-.8838-.58579-1.4142v-28c0-.53043.21071-1.039141.58579-1.414214z"/><path d="m18 0c.3682 0 .6666.298477.6666.666667v8.000003c0 .17681.0703.34638.1953.4714s.2946.19526.4714.19526h8c.3682 0 .6667.29848.6667.66667 0 .3682-.2985.6667-.6667.6667h-8c-.5304 0-1.0391-.2107-1.4142-.5858-.3751-.37509-.5858-.8838-.5858-1.41423v-8.000003c0-.36819.2985-.666667.6667-.666667z"/><path d="m11.3387 10.6667c.3682 0 .6666.2984.6666.6666v1.3334c0 .3682-.2984.6666-.6666.6666s-.6667-.2984-.6667-.6666v-1.3334c0-.3682.2985-.6666.6667-.6666z"/><path d="m11.3387 4c.3682 0 .6666.29848.6666.66667v1.33333c0 .36819-.2984.66667-.6666.66667s-.6667-.29848-.6667-.66667v-1.33333c0-.36819.2985-.66667.6667-.66667z"/><path d="m10 6.66667c-.17681 0-.34638.07023-.4714.19526-.12503.12502-.19527.29459-.19527.4714s.07024.34638.19527.47141c.12502.12502.29459.19526.4714.19526h2.6667c.5304 0 1.0391.21071 1.4142.58579.3751.37507.5858.88378.5858 1.41421 0 .5304-.2107 1.0391-.5858 1.4142s-.8838.5858-1.4142.5858h-4.00003c-.36819 0-.66667-.2985-.66667-.6667s.29848-.6666.66667-.6666h4.00003c.1768 0 .3463-.0703.4714-.1953.125-.125.1952-.2946.1952-.4714 0-.17681-.0702-.34638-.1952-.47141-.1251-.12502-.2946-.19526-.4714-.19526h-2.6667c-.53043 0-1.03914-.21071-1.41421-.58578-.37508-.37508-.58579-.88378-.58579-1.41422 0-.53043.21071-1.03914.58579-1.41421.37507-.37507.88378-.58579 1.41421-.58579h4c.3682 0 .6667.29848.6667.66667s-.2985.66667-.6667.66667z"/></g></svg>