<svg fill="none" height="32" viewBox="0 0 32 32" width="32" xmlns="http://www.w3.org/2000/svg" xmlns:xlink="http://www.w3.org/1999/xlink"><clipPath id="a"><path d="m0 0h32v32h-32z"/></clipPath><g clip-path="url(#a)" clip-rule="evenodd" fill="#262626" fill-rule="evenodd"><path d="m6 1.33333c-.17681 0-.34638.07024-.4714.19526-.12503.12503-.19527.2946-.19527.47141v28c0 .1768.07024.3464.19527.4714.12502.125.29459.1953.4714.1953h20c.1768 0 .3464-.0703.4714-.1953s.1953-.2946.1953-.4714v-21.44786c0-.00005 0 .00005 0 0-.0001-.17675-.0704-.34637-.1954-.47133l-6.552-6.55207c-.125-.125-.2946-.19533-.4713-.19541zm-1.41421-.747546c.37507-.375073.88378-.58578656 1.41421-.58578656h13.448c.5304.00011331 1.0391.21087456 1.4141.58592856 0 .000024-.0001-.000023 0 0l6.5519 6.551924c.3751.37499.5859.88362.586 1.414v21.44815c0 .5304-.2107 1.0391-.5858 1.4142s-.8838.5858-1.4142.5858h-20c-.53043 0-1.03914-.2107-1.41421-.5858-.37508-.3751-.58579-.8838-.58579-1.4142v-28c0-.53044.21071-1.039143.58579-1.414216z"/><path d="m8 14c0-.3682.29848-.6667.66667-.6667h14.66663c.3682 0 .6667.2985.6667.6667v13.3333c0 .3682-.2985.6667-.6667.6667h-14.66663c-.36819 0-.66667-.2985-.66667-.6667zm1.33333.6667v12h13.33337v-12z"/><path d="m8 20.6667c0-.3682.29848-.6667.66667-.6667h14.66663c.3682 0 .6667.2985.6667.6667s-.2985.6666-.6667.6666h-14.66663c-.36819 0-.66667-.2984-.66667-.6666z"/><path d="m8 16.6667c0-.3682.29848-.6667.66667-.6667h4.00003c.1978 0 .3855.0879.5121.2399l6.4668 7.7601h3.6877c.3682 0 .6667.2985.6667.6667s-.2985.6666-.6667.6666h-4c-.1978 0-.3855-.0879-.5121-.2398l-6.4668-7.7602h-3.68773c-.36819 0-.66667-.2984-.66667-.6666z"/><path d="m18.8212 16.2399c.1266-.152.3143-.2399.5121-.2399h4c.3682 0 .6667.2985.6667.6667s-.2985.6666-.6667.6666h-3.6877l-6.4668 7.7602c-.1266.1519-.3143.2398-.5121.2398h-4.00003c-.36819 0-.66667-.2984-.66667-.6666s.29848-.6667.66667-.6667h3.68773z"/></g></svg>