<svg fill="none" height="32" viewBox="0 0 32 32" width="32" xmlns="http://www.w3.org/2000/svg" xmlns:xlink="http://www.w3.org/1999/xlink"><clipPath id="a"><path d="m0 0h32v32h-32z"/></clipPath><g clip-path="url(#a)" clip-rule="evenodd" fill="#262626" fill-rule="evenodd"><path d="m18.6666 22.0107c0-.3682.2985-.6667.6667-.6667h12c.3682 0 .6667.2985.6667.6667v9.3333c0 .3682-.2985.6667-.6667.6667h-12c-.3682 0-.6667-.2985-.6667-.6667zm1.3334.6666v8h10.6666v-8z"/><path d="m24.2222 25.0144c.3289-.2198.7155-.3371 1.1111-.3371.5304 0 1.0392.2107 1.4142.5858.3751.3751.5858.8838.5858 1.4142 0 .3956-.1173.7823-.337 1.1112-.2198.3289-.5322.5852-.8976.7366-.3655.1514-.7676.191-1.1556.1138-.3879-.0772-.7443-.2677-1.024-.5474s-.4702-.636-.5474-1.024c-.0771-.388-.0375-.7901.1139-1.1555.1513-.3655.4077-.6778.7366-.8976zm1.1111.9963c-.1318 0-.2607.0391-.3704.1123-.1096.0733-.195.1774-.2455.2992s-.0637.2559-.0379.3852c.0257.1293.0892.2481.1824.3413.0932.0933.212.1568.3414.1825.1293.0257.2633.0125.3851-.038.1219-.0504.226-.1359.2992-.2455.0733-.1096.1124-.2385.1124-.3704 0-.1768-.0703-.3464-.1953-.4714s-.2946-.1952-.4714-.1952z"/><path d="m25.3333 17.344c-.3502 0-.6969.069-1.0205.203-.3235.134-.6175.3304-.8651.578-.2476.2477-.4441.5416-.5781.8652-.134.3235-.203.6703-.203 1.0205v2c0 .3682-.2984.6666-.6666.6666s-.6667-.2984-.6667-.6666v-2c0-.5253.1035-1.0455.3045-1.5308s.4957-.9262.8671-1.2977c.3714-.3714.8124-.666 1.2977-.8671.4853-.201 1.0054-.3044 1.5307-.3044s1.0454.1034 1.5307.3044c.4853.2011.9263.4957 1.2977.8671.3715.3715.6661.8124.8671 1.2977s.3045 1.0055.3045 1.5308v2c0 .3682-.2985.6666-.6667.6666-.3681 0-.6666-.2984-.6666-.6666v-2c0-.3502-.069-.697-.203-1.0205-.134-.3236-.3304-.6175-.5781-.8652-.2476-.2476-.5416-.444-.8651-.578s-.6703-.203-1.0205-.203z"/><path d="m9.31682.0108788c.01101-.0002727.02202-.0002727.03302 0 .59024.0146224 1.17116.1506402 1.70656.3995792.5353.248938 1.0137.605462 1.4053 1.047362.3915.4419.6879.9597.8706 1.52114.1759.54066.2428 1.11063.1971 1.67692.0746.85245-.0274 1.71137-.2999 2.52301-.2748.81861-.7169 1.57092-1.2981 2.20917-.0022.00527-.005.01211-.0083.0207-.0172.04548-.0374.11554-.0557.20948-.0365.18798-.0563.42586-.0474.66356.0091.2426.0467.4461.0998.5826.0222.0571.0406.0873.0509.1015.217.0803.4318.1593.6436.2371 1.1185.4113 2.1534.7919 2.9879 1.1759.503.2315.9604.4761 1.3359.7462.372.2675.7046.5888.9047.9885.0062.0123.012.0248.0174.0375.5185 1.2194.7926 2.5289.8064 3.8539.0019.178-.0675.3494-.1928.476-.1252.1265-.2958.1977-.4739.1977l-17.333285-.0014c-.178012 0-.348625-.0712-.473833-.1977-.1252077-.1266-.19460964-.2979-.19274539-.4759.01387779-1.3251.28788739-2.6345.80646739-3.8539.005354-.0126.011093-.025.017211-.0373.200285-.4005.532895-.7224.905245-.9903.37575-.2704.83321-.515 1.33622-.7462.82919-.3813 1.8565-.7588 2.96687-1.1669.2184-.0802.44-.1617.66395-.2446.01028-.0141.0287-.0444.05087-.1014.05305-.1366.09066-.34.09977-.5826.00892-.2377-.01089-.47562-.04742-.6636-.01825-.09393-.03849-.164-.05566-.20947-.00325-.00859-.00605-.01544-.00833-.02071-.58098-.63807-1.023-1.39014-1.29781-2.20848-.27247-.8114-.37455-1.67006-.30013-2.52229-.04577-.56631.02113-1.13631.19708-1.67699.1827-.56145.47907-1.07925.87063-1.52114.39156-.4419.86993-.798424 1.40531-1.047362.53537-.248939 1.11628-.3849568 1.70651-.3995792zm-2.58832 9.3616112c0-.00001.00017.00028.0005.0009zm-.04135 1.60261c-.00002 0 .00054-.0006.00174-.0017-.00112.0012-.00172.0018-.00174.0017zm5.29065-.0003c.0012.001.0017.0016.0017.0016 0 .0001-.0006-.0004-.0017-.0016zm-.0372-.0201c.0001.0001.0002.0001.0003.0001zm-.0024-1.58088s-.0002.00035-.0006.001zm-2.60487-8.02956c-.40153.01218-.79648.1058-1.16085.27522-.36936.17175-.6994.41772-.96955.7226-.27015.30487-.47462.66212-.60067 1.04947s-.17098.7965-.13199 1.20198c.00412.04277.00408.08584-.00009.1286-.06699.68595.01181 1.3783.23121 2.03166.2194.65335.57446 1.25293 1.04187 1.75942l.0042.00455-.00002.00002c.12261.13537.19685.29518.24344.41851.05046.1336.08872.27974.11719.42628.05693.29298.08353.63319.07096.96793-.01239.3299-.0642.6934-.18936 1.0155-.12083.311-.35553.693-.80081.8578-.24422.0905-.48252.1781-.71449.2634-1.1101.4081-2.0754.763-2.85222 1.1202-.46632.2144-.83736.4177-1.11444.617-.26981.1942-.41385.3587-.4835.4891-.35667.845-.57827 1.7395-.65797 2.6506l15.93416.0012c-.0797-.911-.3013-1.8053-.6578-2.6503-.0693-.1293-.213-.2933-.4829-.4874-.2772-.1994-.6484-.4028-1.1149-.6175-.7821-.3599-1.7555-.718-2.8748-1.1297-.2249-.0827-.4557-.1676-.692-.2551-.4454-.1648-.6801-.5469-.801-.858-.1252-.3221-.177-.6855-.1894-1.0154-.0125-.33481.0141-.67502.071-.968.0285-.14654.0667-.29268.1172-.42627.0466-.12333.1208-.28315.2434-.41851l.0042-.00461v.00002c.4676-.50662.8227-1.1064 1.0421-1.75997s.2982-1.34615.231-2.03228c-.0042-.04281-.0042-.08593-.0001-.12875.039-.40547-.0059-.81463-.132-1.20198-.126-.38735-.3305-.7446-.6007-1.04947-.2701-.30488-.6001-.55085-.9695-.7226-.3644-.16942-.75933-.26304-1.16087-.27522z"/><path d="m15.9906 1.34398c-.4011-.00044-.7976.08643-1.1618.25461-.3343.15435-.7304.0085-.8847-.32578-.1544-.334271-.0085-.730382.3258-.884736.543-.250759 1.1344-.37957737 1.7325-.3774066l.0141.0000512v.0001489c.5903.0146224 1.1712.1506405 1.7065.3995785.5354.248939 1.0138.605464 1.4053 1.047364.3916.44189.688.95969.8707 1.52113.1759.54066.2428 1.11064.1971 1.67693.0746.85245-.0274 1.71137-.2999 2.52301-.2748.81861-.7169 1.57092-1.2981 2.20917-.0023.00527-.0051.01211-.0083.0207-.0172.04548-.0374.11554-.0557.20948-.0365.18798-.0563.42587-.0474.66357.0091.2426.0467.4461.0998.5826.0201.0519.0372.0816.0478.0972 1.7531.5319 3.4364 1.2714 5.014 2.203.3171.1872.4223.596.2351.913-.1872.3171-.596.4223-.913.2351-1.505-.8886-3.112-1.5918-4.786-2.0942-.0134-.004-.0266-.0084-.0397-.0132-.4454-.1648-.6802-.547-.801-.858-.1252-.3221-.177-.6855-.1894-1.0155-.0126-.33472.014-.67493.071-.96791.0284-.14654.0667-.29268.1172-.42628.0465-.12332.1208-.28314.2434-.4185l.0042-.00461v.00002c.4676-.50662.8227-1.1064 1.0421-1.75997s.2981-1.34615.231-2.03228c-.0042-.04282-.0043-.08593-.0001-.12875.039-.40548-.006-.81463-.132-1.20199-.1261-.38735-.3305-.74459-.6007-1.04946-.2701-.30488-.6002-.55085-.9695-.7226-.3673-.17075-.7656-.2645-1.1703-.27549zm2.6556 9.63242c0 .0001-.0006-.0004-.0018-.0016.0012.001.0018.0016.0018.0016zm-.0414-1.60259c0 .00001-.0001.00032-.0005.0009z"/></g></svg>